<svg width="763" height="736" viewBox="0 0 763 736" fill="none" xmlns="http://www.w3.org/2000/svg">
<path d="M617 0C659 0 693.667 12.3333 721 37C749 61 763 93.6667 763 135C763 167 754.333 195 737 219C719.667 242.333 696.667 261 668 275C642.667 287 593.333 304.333 520 327C557.333 343 584.667 366 602 396C620 425.333 629 459 629 497C629 538.333 616.667 577.333 592 614C567.333 650.667 532 680.333 486 703C440 725 386 736 324 736C266 736 212 726 162 706C112.667 685.333 73.3333 656.333 44 619C14.6667 581 0 537 0 487C0 443 10.6667 406 32 376C54 345.333 79 322.333 107 307C135 291 161 280 185 274C152.333 260 127.333 241.333 110 218C92.6667 194.667 84 170.333 84 145C84 123 90.3333 102.667 103 84.0001C116.333 64.6667 135.667 49.3334 161 38C187 26 217.667 20 253 20C297.667 20 332.333 30 357 50C369 60 378 71.3334 384 84.0001C390.667 96.0001 394 107.667 394 119C394 135 388.333 148 377 158C365.667 167.333 352.667 172 338 172C324 172 311.667 167.667 301 159C291 149.667 286 137.333 286 122C286 107.333 291 95 301 85C311 74.3334 323.667 68.3333 339 67C335.667 58.3334 327 51 313 45C299.667 38.3334 283 35 263 35C228.333 35 200.333 45.6667 179 67C157.667 87.6667 147 116.667 147 154C147 198.667 164 236.667 198 268C221.333 264 242 262 260 262C272 262 281.667 264 289 268C296.333 272 300 277.667 300 285C300 291 297.333 295.667 292 299C287.333 302.333 280.667 304 272 304C261.333 304 250.333 302 239 298C227.667 294 214.333 288.667 199 282C112.333 308 69 362.667 69 446C69 490.667 80.6667 529.333 104 562C127.333 594.667 159.333 619.667 200 637C240.667 653.667 286.333 662 337 662C384.333 662 428 654.667 468 640C508.667 624.667 540.667 603.333 564 576C588 548 600 515.667 600 479C600 452.333 593 425.333 579 398C565 370.667 538.333 349.333 499 334C447 350 408.667 362.667 384 372C356 382.667 334.333 395 319 409C303.667 422.333 296 439 296 459C296 483 305.667 502.333 325 517C345 531.667 366 539 388 539C399.333 539 411.667 537 425 533C438.333 529 446 523.667 448 517C435.333 514.333 424.333 509 415 501C405.667 493 401 481.333 401 466C401 450 406 437.333 416 428C426.667 418.667 440 414 456 414C472 414 484.667 419 494 429C504 439 509 452 509 468C509 494.667 496.667 515.667 472 531C447.333 546.333 420 554 390 554C357.333 554 328.333 544.333 303 525C278.333 505 266 475.667 266 437C266 403 277.333 374.333 300 351C323.333 327 358 307 404 291L475 270C515 258.667 548.333 248.667 575 240C601.667 231.333 626 222 648 212C680 197.333 702.333 182.333 715 167C727.667 151.667 734 134.667 734 116C734 88.0001 722.333 64.3334 699 45C676.333 25 649.333 15 618 15C601.333 15 591.333 18 588 24C596.667 28 603.333 34.6667 608 44C613.333 52.6667 616 61.3334 616 70.0001C616 84 610.333 95.6667 599 105C588.333 114.333 575.333 119 560 119C546 119 533.667 114.667 523 106C512.333 97.3334 507 85 507 69C507 45 518 27.6667 540 17C562.667 5.66667 588.333 0 617 0Z" fill="black"/>
</svg>
