<?xml version="1.0" standalone="no"?>
<!DOCTYPE svg PUBLIC "-//W3C//DTD SVG 20010904//EN"
 "http://www.w3.org/TR/2001/REC-SVG-20010904/DTD/svg10.dtd">
<svg version="1.0" xmlns="http://www.w3.org/2000/svg"
 width="1080.000000pt" height="1080.000000pt" viewBox="0 0 1080.000000 1080.000000"
 preserveAspectRatio="xMidYMid meet">
<metadata>
Created by potrace 1.11, written by Peter Selinger 2001-2013
</metadata>
<g transform="translate(0.000000,1080.000000) scale(0.100000,-0.100000)"
fill="#000000" stroke="none">
<path d="M8535 10604 c-379 -32 -719 -130 -977 -282 -194 -114 -318 -283 -364
-495 -22 -98 -21 -292 0 -382 46 -191 166 -335 361 -433 127 -63 193 -77 375
-77 145 0 174 3 240 23 362 114 584 416 540 735 -14 102 -40 172 -103 287 -61
110 -146 206 -229 257 l-59 36 23 25 c127 135 646 133 1018 -5 243 -91 432
-214 636 -418 120 -119 166 -177 237 -300 160 -276 200 -652 101 -950 -156
-469 -620 -817 -1599 -1200 -378 -148 -842 -298 -1592 -516 -370 -107 -786
-229 -1203 -353 -602 -179 -1077 -406 -1450 -694 -101 -78 -280 -251 -355
-342 -235 -289 -357 -624 -372 -1025 -23 -618 192 -1100 621 -1387 341 -228
708 -338 1127 -338 359 0 671 71 974 220 319 158 496 316 610 545 78 157 99
250 99 445 1 181 -16 259 -87 394 -60 117 -182 237 -297 293 -122 60 -198 77
-360 77 -256 -1 -433 -67 -585 -219 -133 -132 -187 -279 -188 -505 -1 -158 15
-234 69 -342 78 -155 285 -303 513 -367 40 -11 75 -22 77 -24 2 -2 -9 -23 -24
-46 -56 -83 -179 -147 -385 -200 -188 -49 -320 -64 -492 -58 -220 9 -381 50
-580 150 -417 208 -625 481 -667 875 -18 177 10 348 83 501 75 158 182 278
383 428 358 268 768 433 2144 864 l263 82 112 -48 c204 -87 392 -194 551 -314
83 -63 248 -221 309 -296 123 -152 259 -426 346 -700 204 -637 123 -1311 -218
-1828 -486 -735 -1402 -1236 -2563 -1401 -310 -44 -422 -51 -843 -51 -428 1
-571 10 -893 61 -807 126 -1494 432 -1989 887 -500 459 -776 984 -880 1673
-26 171 -26 679 0 844 145 928 695 1536 1694 1869 l121 41 144 -61 c78 -34
206 -85 283 -114 300 -113 381 -130 600 -130 194 1 246 16 331 99 60 58 80
111 71 188 -16 132 -112 217 -305 270 -67 19 -104 22 -297 22 -231 1 -354 -9
-650 -50 -127 -18 -186 -22 -201 -15 -12 5 -69 61 -126 124 -327 358 -494 701
-564 1157 -25 158 -25 490 -1 650 59 383 188 652 432 895 256 257 555 399 938
446 149 18 515 6 639 -20 234 -51 479 -165 592 -276 36 -36 96 -120 96 -136 0
-4 -30 -12 -67 -18 -147 -25 -258 -73 -372 -159 -138 -105 -241 -253 -283
-409 -29 -109 -29 -297 0 -406 51 -187 163 -326 332 -410 141 -70 196 -82 380
-82 184 0 238 12 386 85 161 79 285 208 351 365 61 143 68 356 19 530 -34 119
-160 368 -240 475 -229 305 -580 517 -1019 614 -565 126 -1295 83 -1817 -106
-519 -188 -914 -508 -1111 -900 -225 -447 -225 -933 0 -1393 110 -224 248
-413 431 -588 192 -184 383 -315 660 -454 93 -47 158 -84 150 -87 -8 -3 -54
-17 -103 -31 -354 -102 -865 -343 -1198 -566 -307 -206 -666 -571 -881 -897
-224 -341 -352 -711 -399 -1159 -18 -178 -7 -707 19 -863 105 -636 372 -1166
825 -1636 825 -858 2081 -1342 3584 -1380 919 -24 1776 143 2458 476 918 449
1576 1161 1860 2015 174 521 192 1103 50 1642 -132 503 -424 967 -795 1266
-157 126 -412 282 -574 351 -36 16 -66 31 -66 35 0 4 78 31 173 60 664 205
1375 452 1733 601 355 148 642 332 888 570 260 251 429 512 530 819 79 242
114 504 102 760 -24 524 -188 910 -523 1232 -174 167 -325 273 -535 374 -209
100 -425 162 -678 195 -90 12 -440 21 -525 14z"/>
</g>
</svg>
